<?xml version="1.0" encoding="UTF-8"?>
<svg xmlns="http://www.w3.org/2000/svg" width="159" height="30" viewBox="0 0 159 30" fill="none">
  <g clip-path="url(#clip0_977_4021)">
    <path fill-rule="evenodd" clip-rule="evenodd" d="M121.627 23.7586H120.663C119.969 23.7586 119.572 23.167 119.567 22.6698V3.34032C119.567 3.24081 119.501 3.17422 119.401 3.17422H116.574C116.474 3.17422 116.407 3.24081 116.407 3.34032V22.3859C116.407 24.2726 117.133 25.2458 117.567 25.6793C118.01 26.1228 118.662 26.3898 119.533 26.5091C119.876 26.5559 120.246 26.5856 120.663 26.5856H121.627C121.727 26.5856 121.794 26.519 121.794 26.4191V23.9254C121.794 23.8252 121.727 23.7586 121.627 23.7586ZM155.349 18.172C155.349 14.7136 153.62 12.2529 150.594 12.2529C147.401 12.2529 145.506 14.7136 145.506 18.172C145.506 21.6304 147.401 24.0919 150.594 24.0919C153.62 24.0919 155.349 21.6304 155.349 18.172ZM158.509 3.34032V26.4191C158.509 26.519 158.442 26.5856 158.342 26.5856H155.849C155.749 26.5856 155.715 26.519 155.683 26.4191L155.349 25.0892C155.283 24.8895 155.117 24.9231 155.017 25.0226C154.119 25.9204 151.925 26.9181 150.262 26.9181C145.406 26.9181 142.347 23.3602 142.347 18.172C142.347 12.9846 145.406 9.42593 150.262 9.42593C152.59 9.42593 154.618 10.8561 155.017 11.3218C155.183 11.5212 155.349 11.388 155.349 11.2552V3.34032C155.349 3.24081 155.416 3.17422 155.516 3.17422H158.342C158.442 3.17422 158.509 3.24081 158.509 3.34032ZM135.46 19.203C135.46 19.1035 135.394 19.0369 135.294 19.0369H130.638C127.113 19.0369 126.482 20.4334 126.482 21.5972C126.482 22.7946 127.313 24.0919 129.973 24.0919C133.997 24.0919 135.394 21.697 135.46 19.6687V19.203ZM140.848 23.9254V26.4191C140.848 26.519 140.781 26.5856 140.681 26.5856H139.717C137.822 26.5856 136.691 26.1198 136.192 25.0556C136.125 24.8895 135.959 24.9231 135.893 24.989C135.095 25.8209 133.033 26.9181 129.973 26.9181C125.517 26.9181 123.322 24.7567 123.322 21.5972C123.322 18.7043 125.75 16.5425 130.638 16.5425H134.363C135.095 16.5425 135.46 15.9111 135.46 15.4453C135.46 14.0814 135.127 12.2529 131.171 12.2529C128.311 12.2529 127.014 13.5828 127.014 15.2789C127.014 15.3787 126.947 15.4453 126.847 15.4453H124.021C123.921 15.4453 123.854 15.3787 123.854 15.2789C123.854 11.3551 127.413 9.42593 131.171 9.42593C135.76 9.42593 138.619 11.388 138.619 15.4453V22.6614C138.619 23.1601 139.019 23.7586 139.717 23.7586H140.681C140.781 23.7586 140.848 23.8252 140.848 23.9254ZM105.445 12.2529C107.706 12.2529 109.302 13.3168 110.034 15.2789C110.066 15.3787 110.133 15.4453 110.233 15.4453H113.193C113.293 15.4453 113.392 15.4124 113.359 15.2789C112.461 11.6207 109.668 9.42593 105.445 9.42593C100.223 9.42593 97.2305 12.9509 97.2305 18.172C97.2305 23.3602 100.223 26.9181 105.445 26.9181C109.668 26.9181 112.428 24.7567 113.359 21.0656C113.392 20.9324 113.293 20.8995 113.193 20.8995H110.233C110.133 20.8995 110.066 20.9653 110.034 21.0656C109.302 23.0276 107.706 24.0919 105.445 24.0919C102.285 24.0919 100.39 21.6304 100.39 18.172C100.39 14.7136 102.285 12.2529 105.445 12.2529ZM87.1183 9.42593C84.8902 9.42593 83.4268 10.4569 82.7621 11.4546C82.6955 11.5541 82.4291 11.6207 82.3966 11.4213L82.0636 9.92459C82.0304 9.82508 81.9974 9.75849 81.8975 9.75849H79.4032C79.3033 9.75849 79.2371 9.82508 79.2371 9.92459V26.4191C79.2371 26.519 79.3033 26.5856 79.4032 26.5856H82.2301C82.33 26.5856 82.3966 26.519 82.3966 26.4191V17.2739C82.3966 14.6807 83.9924 12.2529 86.7857 12.2529C90.078 12.2529 91.2085 14.7465 91.2085 17.2739V26.4191C91.2085 26.519 91.2751 26.5856 91.375 26.5856H94.2016C94.3015 26.5856 94.368 26.519 94.368 26.4191V17.2739C94.368 12.9509 91.9399 9.42593 87.1183 9.42593ZM73.1156 18.172C73.1156 14.7136 71.2197 12.2529 68.0273 12.2529C64.8682 12.2529 62.9394 14.7136 62.9394 18.172C62.9394 21.6304 64.8682 24.0919 68.0273 24.0919C71.2197 24.0919 73.1156 21.6304 73.1156 18.172ZM76.2747 18.172C76.2747 23.3602 73.2155 26.9181 68.0273 26.9181C62.8069 26.9181 59.7806 23.3602 59.7806 18.172C59.7806 12.9509 62.8069 9.42593 68.0273 9.42593C73.2155 9.42593 76.2747 12.9846 76.2747 18.172ZM58.5254 9.42593H56.8293C55.1668 9.42593 53.9365 10.3237 52.8056 11.4546C52.7057 11.5541 52.506 11.6207 52.4401 11.4213L52.1072 9.92459C52.0739 9.82508 52.041 9.75849 51.9411 9.75849H49.4467C49.3472 9.75849 49.2806 9.82508 49.2806 9.92459V26.4191C49.2806 26.519 49.3472 26.5856 49.4467 26.5856H52.2736C52.3732 26.5856 52.4401 26.519 52.4401 26.4191V17.2739C52.4401 14.6807 54.036 12.2529 56.8293 12.2529H58.5254C58.6249 12.2529 58.6918 12.1863 58.6918 12.0864V9.59203C58.6918 9.49252 58.6249 9.42593 58.5254 9.42593ZM44.8658 3.34032V26.4191C44.8658 26.519 44.7993 26.5856 44.6994 26.5856H41.8732C41.7729 26.5856 41.7063 26.519 41.7063 26.4191V3.34032C41.7063 3.24081 41.7729 3.17422 41.8732 3.17422H44.6994C44.7993 3.17422 44.8658 3.24081 44.8658 3.34032Z" fill="#1C212B"></path>
    <path fill-rule="evenodd" clip-rule="evenodd" d="M26.186 0C26.2719 0 26.3415 0.0695122 26.3415 0.155488V3.00402C26.3415 3.09 26.2719 3.15951 26.186 3.15951L14.75 3.15875V26.6L26.186 26.6005C26.2548 26.6005 26.313 26.645 26.3335 26.7068L26.3415 26.756V29.6045C26.3415 29.6733 26.297 29.7315 26.2352 29.7521L26.186 29.76H0.155488C0.0867073 29.76 0.0284634 29.7155 0.00791707 29.6537L0 29.6045V26.756C0 26.6872 0.0444878 26.629 0.106302 26.6084L0.155488 26.6005L11.59 26.6V3.15875L0.155488 3.15951C0.0867073 3.15951 0.0284634 3.11502 0.00791707 3.05321L0 3.00402V0.155488C0 0.0695122 0.0695122 0 0.155488 0H26.186ZM7.91016 6.68477C7.97865 6.68477 8.03707 6.72926 8.05769 6.79107L8.06565 6.84026V22.9195C8.06565 22.988 8.02092 23.0464 7.9592 23.0671L7.91016 23.075L0.155488 23.0752C0.0867073 23.0752 0.0284634 23.0307 0.00791707 22.9689L0 22.9197V20.0711C0 20.0024 0.0444878 19.9441 0.106302 19.9236L0.155488 19.9156L4.905 19.915V9.84375L0.155488 9.84439C0.0867073 9.84439 0.0284634 9.7999 0.00791707 9.73809L0 9.6889V6.84037C0 6.77159 0.0444878 6.71334 0.106302 6.6928L0.155488 6.68488L7.91016 6.68477ZM26.186 6.68488C26.2548 6.68488 26.313 6.72937 26.3335 6.79118L26.3415 6.84037V9.6889C26.3415 9.75768 26.297 9.81593 26.2352 9.83647L26.186 9.84439L21.435 9.84375V19.915L26.186 19.9156C26.2548 19.9156 26.313 19.9601 26.3335 20.0219L26.3415 20.0711V22.9197C26.3415 22.9885 26.297 23.0467 26.2352 23.0672L26.186 23.0752L18.4313 23.075C18.3626 23.075 18.3043 23.0303 18.2838 22.9686L18.2759 22.9195V6.84026C18.2759 6.77148 18.3203 6.71323 18.3822 6.69269L18.4313 6.68477L26.186 6.68488Z" fill="#00CA88"></path>
  </g>
  <defs>
    <clipPath id="clip0_977_4021">
      <rect width="158.75" height="30" fill="white"></rect>
    </clipPath>
  </defs>
</svg>
