<svg width="1621" height="252" viewBox="0 0 1621 252" fill="none" xmlns="http://www.w3.org/2000/svg">
<g clip-path="url(#clip0_1_2)">
<mask id="mask0_1_2" style="mask-type:luminance" maskUnits="userSpaceOnUse" x="459" y="-1" width="1162" height="254">
<path d="M1621 -0.449997H459.81V252.44H1621V-0.449997Z" fill="white"/>
</mask>
<g mask="url(#mask0_1_2)">
<path d="M686.88 247.73V38.13H685.88L602.36 221.51H580.55L496.7 38.13H496.02V247.76H459.81V-0.440002H516.83L591.29 168.36L666.08 -0.440002H723.1V247.73H686.89H686.88Z" fill="#150B27"/>
<path d="M762.05 247.73V61.94H796.93V247.75H762.05V247.72V247.73Z" fill="#150B27"/>
<path d="M1082.02 247.73V143.76C1082.02 108.55 1067.26 88.75 1038.08 88.75C1007.21 88.75 993.81 105.87 993.81 143.08V247.73H958.93V139.74C958.93 103.18 941.82 88.77 916.67 88.77C885.8 88.77 870.72 106.89 870.72 143.43V247.73H835.84V61.94H868.04V82.07H868.72C883.8 64.3 897.91 56.92 922.05 56.92C946.19 56.92 970.33 68.67 979.75 88.11C993.15 66.98 1011.62 56.92 1041.13 56.92C1089.41 56.92 1116.92 87.11 1116.92 135.07V247.75H1082.04V247.73H1082.02Z" fill="#150B27"/>
<path d="M1155.48 247.73V61.94H1190.36V247.75H1155.48V247.72V247.73Z" fill="#150B27"/>
<path d="M1406.36 186.37C1391.6 228.31 1356.04 252.45 1314.81 252.45C1261.48 252.45 1219.57 209.51 1219.57 156.53C1219.57 100.52 1260.15 56.92 1314.48 56.92C1356.74 56.92 1395.31 83.42 1406.38 123.68H1367.81C1357.42 101.87 1340.66 88.8 1315.48 88.8C1278.91 88.8 1254.44 116.63 1254.44 154.53C1254.44 192.43 1279.59 220.61 1314.82 220.61C1338.63 220.61 1357.76 207.86 1367.47 186.4H1406.37L1406.35 186.37H1406.36Z" fill="#150B27"/>
<path d="M1586.14 247.73V218.89H1585.46C1572.39 241.02 1548.89 252.42 1522.42 252.42C1468.09 252.42 1423.82 211.51 1423.82 157.83C1423.82 98.48 1466.41 56.87 1521.09 56.87C1548.27 56.87 1571.06 66.93 1585.49 88.06H1586.17V61.91H1621.05V247.72H1586.14V247.73ZM1586.8 155.18C1586.8 118.97 1560.65 88.78 1522.08 88.78C1487.2 88.78 1458.69 118.62 1458.69 155.18C1458.69 191.74 1487.2 220.58 1522.08 220.58C1556.96 220.58 1586.8 190.39 1586.8 155.18Z" fill="#150B27"/>
<path d="M779.49 43.02C791.22 43.02 800.72 33.51 800.72 21.79C800.72 10.07 791.21 0.559998 779.49 0.559998C767.77 0.559998 758.26 10.07 758.26 21.79C758.26 33.51 767.77 43.02 779.49 43.02Z" fill="#150B27"/>
<path d="M1172.91 43.02C1184.64 43.02 1194.14 33.51 1194.14 21.79C1194.14 10.07 1184.63 0.559998 1172.91 0.559998C1161.19 0.559998 1151.68 10.07 1151.68 21.79C1151.68 33.51 1161.19 43.02 1172.91 43.02Z" fill="#150B27"/>
</g>
<path d="M73.05 128.39V10.14C73.05 1.43 83.11 -3.43 89.93 1.98L227.88 111.35C230.37 113.32 231.82 116.33 231.82 119.51V237.76C231.82 246.47 221.76 251.33 214.94 245.92L76.9901 136.55C74.5001 134.58 73.05 131.57 73.05 128.39Z" fill="#150B27"/>
<path d="M221.41 128.39V10.14C221.41 1.43 231.47 -3.43 238.29 1.98L376.24 111.35C378.73 113.32 380.18 116.33 380.18 119.51V237.76C380.18 246.47 370.13 251.33 363.3 245.92L225.35 136.55C222.86 134.58 221.41 131.57 221.41 128.39Z" fill="#150B27"/>
<path d="M52.23 248.15C80.982 248.15 104.29 224.842 104.29 196.09C104.29 167.338 80.982 144.03 52.23 144.03C23.4781 144.03 0.170044 167.338 0.170044 196.09C0.170044 224.842 23.4781 248.15 52.23 248.15Z" fill="#150B27"/>
</g>
<defs>
<clipPath id="clip0_1_2">
<rect width="1621" height="252" fill="white"/>
</clipPath>
</defs>
</svg>
