<svg width="211" height="179" viewBox="0 0 211 179" fill="none" xmlns="http://www.w3.org/2000/svg">
<path d="M204.5 34.0996L140.6 51.4996C143.2 63.4996 144.5 76.1996 144.5 89.5996C144.5 102.9 143.1 115.7 140.6 127.7L204.5 145.1C208.6 127.8 210.7 108.8 210.7 89.6996C210.7 70.5996 208.6 51.3996 204.5 34.0996Z" fill="#00D7B8"/>
<path d="M42.6 16.0996L0.5 89.4996L67.2 39.4996C60.8 29.8996 52.5 21.9996 42.6 16.0996Z" fill="#5F3AD7"/>
<path d="M42.6 162.9L0.5 89.5L67.2 139.5C60.8 149.1 52.5 157 42.6 162.9Z" fill="#5F3AD7"/>
<path d="M119.5 0.199219L0.5 89.4992L140.6 51.3992C136.5 32.3992 129.3 15.1992 119.5 0.199219Z" fill="#0280FF"/>
<path d="M119.5 178.8L0.5 89.5L140.6 127.6C136.5 146.6 129.3 163.8 119.5 178.8Z" fill="#0280FF"/>
<path d="M144.6 89.5004C144.6 76.2004 143.2 63.4004 140.7 51.4004L0.5 89.5004L140.6 127.6C143.2 115.5 144.6 102.9 144.6 89.5004Z" fill="white"/>
</svg>
