<svg width="23" height="25" viewBox="0 0 23 25" fill="none" xmlns="http://www.w3.org/2000/svg">
<path fill-rule="evenodd" clip-rule="evenodd" d="M16.7084 17.796C14.9268 17.796 13.4826 16.3162 13.4826 14.4911C13.4826 12.6656 14.9268 11.1858 16.7084 11.1858C18.49 11.1858 19.9342 12.6656 19.9342 14.4911C19.9342 16.3162 18.49 17.796 16.7084 17.796ZM17.6741 8.12797V5.18777C18.4232 4.82528 18.9478 4.04892 18.9478 3.14793V3.08006C18.9478 1.83656 17.9549 0.819173 16.7412 0.819173H16.6753C15.4617 0.819173 14.4687 1.83656 14.4687 3.08006V3.14793C14.4687 4.04892 14.9934 4.8256 15.7424 5.18809V8.12797C14.6272 8.30462 13.6083 8.77589 12.7679 9.46947L4.88915 3.18979C4.94115 2.98524 4.97768 2.77466 4.97798 2.55329C4.97922 1.14519 3.86681 0.00190449 2.49193 1.65206e-06C1.11767 -0.00158405 0.0015492 1.13853 1.61281e-06 2.54695C-0.00154598 3.95537 1.11086 5.09866 2.48574 5.10024C2.93362 5.10088 3.34837 4.97053 3.71175 4.75868L11.4618 10.9362C10.8028 11.9555 10.4165 13.1765 10.4165 14.4911C10.4165 15.8671 10.8409 17.1401 11.5577 18.187L9.20105 20.602C9.01472 20.5446 8.82158 20.5047 8.61668 20.5047C7.48725 20.5047 6.57139 21.4428 6.57139 22.6C6.57139 23.7576 7.48725 24.6957 8.61668 24.6957C9.74642 24.6957 10.662 23.7576 10.662 22.6C10.662 22.3907 10.623 22.1925 10.567 22.0016L12.8983 19.6129C13.9565 20.4403 15.2744 20.9376 16.7084 20.9376C20.1834 20.9376 23 18.0513 23 14.4911C23 11.268 20.6891 8.60527 17.6741 8.12797Z" fill="#FF7A59"/>
</svg>
