<svg width="420" height="440" viewBox="60 380 460 450" fill="none" xmlns="http://www.w3.org/2000/svg">
<!-- Top wave: navy -->
<path d="M96.75 438.048C94.75 430.288 93 418.523 93 412.015V400H232.25C347 400 374.25 400.751 385.5 403.755C393 405.757 406.5 411.014 415.5 415.519C426 420.776 438 429.787 449.5 441.302C460.5 452.316 470.25 465.082 476 476.346C481 486.108 487 500.626 489 508.887C492 519.65 493 535.67 493 565.708C493 588.987 492.25 607.761 491.25 607.761C490 607.511 485.75 602.755 481.5 596.997C477.25 591.24 466.75 580.977 457.75 574.469C449 567.711 435.5 559.951 428 556.947C415 551.941 408.5 551.44 314.25 549.938C231 548.687 211.75 547.686 199.25 544.181C191 541.678 177.5 536.421 169.25 531.916C161 527.66 146.25 516.146 136.5 506.384C124.25 494.369 116 483.355 109.5 470.839C104.5 460.826 98.75 446.058 96.75 438.048Z" fill="#0F1F3D"/>
<!-- Bottom wave: amber -->
<path d="M97 629.038C94.75 620.778 93 608.763 93 602.254V590.239H231C346.5 590.239 371.75 590.74 384.25 593.994C392.5 596.247 406.5 601.503 415.5 606.009C426 611.015 438 620.277 449.25 631.541C460.5 642.555 470.25 655.571 476 666.585C481 676.097 486.75 690.866 489 699.126C491.75 709.89 493 726.16 493 756.198C493 779.227 492.25 798 491 798C490 798 485.25 792.744 480.5 786.235C475.75 779.978 465 769.965 456.75 763.957C448.5 758.2 435.5 750.691 428 747.687C414.75 741.93 411.25 741.68 313 740.428C218.5 738.926 210.75 738.425 195.5 733.419C186.5 730.415 172 723.907 163.25 718.651C154.5 713.394 140.5 701.629 132 692.618C123.75 683.607 113.25 669.088 108.75 660.077C104.25 651.316 99 637.298 97 629.038Z" fill="#D4A843"/>
</svg>
