<svg width="2108" height="1199" viewBox="0 0 2108 1199" fill="none" xmlns="http://www.w3.org/2000/svg">
<rect width="2107.71" height="1199" fill="white"/>
<path d="M826.237 452.068C817.5 456.859 813.555 463.059 813.555 472.641C813.555 492.087 840.047 501.388 854.42 486.733C863.72 477.432 863.438 467.005 853.293 456.859C844.556 448.404 835.819 446.713 826.237 452.068Z" fill="#000F29"/>
<path d="M1458.66 456.858C1448.52 467.004 1448.23 477.432 1457.54 486.732C1471.63 501.105 1498.4 492.369 1498.4 473.486C1498.4 462.213 1495.58 457.422 1486.85 452.912C1475.01 446.712 1467.96 447.839 1458.66 456.858Z" fill="#000F29"/>
<path d="M574 591.01V722.061H593.728H613.456V664.286V606.51L679.122 607.074L744.507 607.92L745.352 664.849L745.916 722.061H765.644H785.372V591.01V459.959H765.644H745.916V516.325V572.691H679.686H613.456V516.325V459.959H593.728H574V591.01Z" fill="#000F29"/>
<path d="M1213.75 507.87C1213.75 534.08 1213.19 555.781 1212.34 555.781C1211.5 555.781 1206.14 550.708 1200.51 544.226C1185.57 527.88 1176.27 523.653 1153.16 523.653C1109.19 523.653 1078.76 554.372 1073.12 604.538C1066.92 660.34 1086.65 704.869 1124.69 720.651C1130.05 722.906 1143.01 724.879 1153.16 724.879C1175.99 724.879 1189.23 718.679 1203.61 701.769L1213.75 689.65V705.715V722.061H1232.07H1250.39V591.01V459.959H1232.07H1213.75V507.87ZM1185.57 561.418C1193.74 565.645 1198.25 570.718 1204.45 583.119C1211.22 597.492 1212.34 602.565 1212.34 624.829C1212.34 654.14 1205.58 672.177 1190.08 684.014C1171.48 698.105 1139.91 695.005 1126.1 677.532C1105.53 651.321 1104.4 598.901 1123.85 574.1C1138.5 555.499 1163.87 550.426 1185.57 561.418Z" fill="#000F29"/>
<path d="M1723.86 591.01V722.061H1743.59H1763.04L1763.88 653.294C1764.73 588.755 1765.01 583.964 1770.65 576.637C1780.51 563.391 1790.38 557.754 1806.16 556.627C1824.76 555.217 1838.29 561.7 1846.46 575.509C1851.53 584.528 1852.1 591.01 1852.94 653.576L1853.79 722.061H1872.11H1890.43L1889.58 645.403C1888.73 572.973 1888.45 567.9 1882.53 557.19C1867.88 529.853 1839.98 518.016 1806.44 524.78C1792.63 527.598 1788.12 530.417 1776.85 541.972L1763.32 555.781V507.87V459.959H1743.59H1723.86V591.01Z" fill="#000F29"/>
<path d="M1932.42 502.233V524.78H1918.33H1904.23V540.28V555.781H1918.33H1932.42V614.12C1932.42 646.53 1933.83 677.813 1935.24 683.732C1941.72 712.196 1969.06 728.542 2002.03 723.47L2014.71 721.497L2012.74 708.814C2009.92 689.932 2009.64 689.368 1997.24 690.495C1988.5 691.341 1984.84 690.214 1979.2 684.295L1971.87 677.25V616.374V555.781H1991.6H2011.33V540.28V524.78H1991.6H1971.87V502.233V479.687H1952.15H1932.42V502.233Z" fill="#000F29"/>
<path d="M959.824 526.189C947.987 530.135 937.278 538.308 927.695 551.554C924.032 556.627 923.75 555.781 923.468 540.844V524.78H905.149H886.83V623.42V722.061H904.867H923.186L924.032 655.267C924.877 594.11 925.441 587.346 930.514 578.609C938.969 564.236 949.396 557.754 966.306 556.627C984.625 555.217 998.153 561.7 1005.76 575.791C1010.27 584.246 1010.84 592.701 1010.84 653.576V722.061H1030.56H1050.29V654.421C1050.29 617.22 1048.88 580.864 1047.19 572.973C1043.53 554.936 1030.84 537.744 1016.47 530.417C1001.53 522.807 976.452 520.834 959.824 526.189Z" fill="#000F29"/>
<path d="M1335.79 524.78C1302.53 531.826 1281.39 553.527 1281.39 581.146C1281.39 612.429 1298.3 626.52 1349.03 638.639C1379.47 645.967 1389.9 651.04 1394.69 661.185C1398.63 670.204 1392.72 682.041 1380.6 689.087C1369.04 695.85 1342.27 696.414 1329.59 689.932C1324.79 687.114 1318.59 680.632 1316.06 675.277C1312.11 667.104 1310.14 665.695 1303.94 666.822C1299.99 667.667 1292.1 669.077 1286.47 670.204C1274.35 672.177 1273.78 673.586 1280.27 686.268C1286.75 698.951 1297.74 710.224 1310.98 717.269C1320.57 722.624 1326.77 723.47 1354.67 723.47C1385.39 723.47 1387.92 722.906 1402.3 715.015C1435.84 696.414 1445.42 656.958 1422.03 633.002C1411.03 621.447 1394.12 614.12 1363.69 607.638C1334.66 601.719 1322.54 594.11 1321.41 581.991C1320.29 569.873 1324.23 563.109 1336.07 557.472C1355.23 548.454 1379.75 553.808 1391.59 569.873C1398.07 578.328 1398.92 578.609 1412.44 576.918C1420.05 575.791 1427.66 573.818 1428.79 572.691C1432.17 569.591 1421.74 550.426 1411.88 541.126C1407.65 536.899 1399.48 531.544 1393.84 529.289C1380.88 523.934 1351 521.398 1335.79 524.78Z" fill="#000F29"/>
<path d="M1579.29 524.78C1562.66 529.007 1553.64 534.644 1539.83 550.145C1522.36 569.591 1517 586.501 1516.72 622.011C1516.72 659.213 1522.36 675.559 1541.8 695.569C1557.58 711.915 1575.9 719.242 1599.86 719.242C1617.05 719.242 1639.03 708.251 1648.9 694.441L1656.23 684.014V712.197C1656.23 734.743 1655.1 742.07 1650.87 749.116C1643.26 761.799 1627.48 768.562 1605.5 768.281C1584.64 768.281 1573.37 763.489 1562.38 750.244L1555.05 741.789L1539.27 748.834L1523.2 755.88L1528.56 764.899C1535.04 776.172 1556.74 791.109 1572.52 795.618C1579 797.591 1595.07 799 1608.31 799C1646.08 798.718 1672.29 786.318 1686.38 762.362L1694.27 748.834L1695.12 636.666L1695.96 524.78H1677.64H1659.04V540.281C1659.04 548.735 1657.92 555.781 1656.79 555.781C1655.38 555.781 1651.72 551.836 1648.05 547.326C1633.68 527.598 1605.21 518.298 1579.29 524.78ZM1626.35 559.727C1637.06 564.236 1648.33 577.764 1653.13 592.137C1657.07 604.256 1657.07 638.357 1653.13 653.012C1641.85 693.596 1584.36 699.514 1563.22 662.313C1555.33 648.221 1552.23 614.684 1557.3 596.365C1566.32 563.109 1596.48 547.326 1626.35 559.727Z" fill="#000F29"/>
<path d="M819.191 623.42V722.061H837.51H855.829V623.42V524.78H837.51H819.191V623.42Z" fill="#000F29"/>
<path d="M1456.12 623.42V722.061H1474.44H1492.76V623.42V524.78H1474.44H1456.12V623.42Z" fill="#000F29"/>
<path d="M96.75 438.048C94.75 430.288 93 418.523 93 412.015V400H232.25C347 400 374.25 400.751 385.5 403.755C393 405.757 406.5 411.014 415.5 415.519C426 420.776 438 429.787 449.5 441.302C460.5 452.316 470.25 465.082 476 476.346C481 486.108 487 500.626 489 508.887C492 519.65 493 535.67 493 565.708C493 588.987 492.25 607.761 491.25 607.761C490 607.511 485.75 602.755 481.5 596.997C477.25 591.24 466.75 580.977 457.75 574.469C449 567.711 435.5 559.951 428 556.947C415 551.941 408.5 551.44 314.25 549.938C231 548.687 211.75 547.686 199.25 544.181C191 541.678 177.5 536.421 169.25 531.916C161 527.66 146.25 516.146 136.5 506.384C124.25 494.369 116 483.355 109.5 470.839C104.5 460.826 98.75 446.058 96.75 438.048Z" fill="#379BFF"/>
<path d="M97 629.038C94.75 620.778 93 608.763 93 602.254V590.239H231C346.5 590.239 371.75 590.74 384.25 593.994C392.5 596.247 406.5 601.503 415.5 606.009C426 611.015 438 620.277 449.25 631.541C460.5 642.555 470.25 655.571 476 666.585C481 676.097 486.75 690.866 489 699.126C491.75 709.89 493 726.16 493 756.198C493 779.227 492.25 798 491 798C490 798 485.25 792.744 480.5 786.235C475.75 779.978 465 769.965 456.75 763.957C448.5 758.2 435.5 750.691 428 747.687C414.75 741.93 411.25 741.68 313 740.428C218.5 738.926 210.75 738.425 195.5 733.419C186.5 730.415 172 723.907 163.25 718.651C154.5 713.394 140.5 701.629 132 692.618C123.75 683.607 113.25 669.088 108.75 660.077C104.25 651.316 99 637.298 97 629.038Z" fill="#81DBFD"/>
</svg>
